<svg xmlns="http://www.w3.org/2000/svg" width="96" height="96" viewBox="0 0 96 96" role="img" aria-labelledby="title desc">
  <title id="title">Jean2</title>
  <desc id="desc">Jean2 client mark for tokenjuice docs.</desc>
  <rect width="96" height="96" rx="18" fill="#101828"/>
  <path d="M29 24h36v13H47v10h15v12H47c0 12-8 20-21 20-4 0-8-1-11-2l3-12c2 1 5 1 8 1 5 0 8-3 8-9V37h-5V24Z" fill="#F8FAFC"/>
  <path d="M63 52c9 0 16 6 16 14s-7 14-16 14c-5 0-10-2-13-5l7-8c1 1 3 2 5 2 3 0 4-1 4-3s-2-3-5-3h-7V52h9Z" fill="#38BDF8"/>
</svg>
