<svg xmlns="http://www.w3.org/2000/svg" width="96" height="96" viewBox="0 0 96 96" role="img" aria-labelledby="title desc">
  <title id="title">Codegen</title>
  <desc id="desc">Codegen client mark for tokenjuice docs.</desc>
  <rect width="96" height="96" rx="18" fill="#0F172A"/>
  <path d="M24 48c0-15 11-26 27-26 8 0 15 3 20 8l-8 10c-3-3-7-5-12-5-8 0-14 6-14 13s6 13 14 13c5 0 9-2 12-5l8 10c-5 5-12 8-20 8-16 0-27-11-27-26Z" fill="#F8FAFC"/>
  <path d="M52 43h23v10H52z" fill="#38BDF8"/>
  <path d="M21 28h14v8H21zm0 32h14v8H21zm40-32h14v8H61zm0 32h14v8H61z" fill="#22C55E"/>
</svg>
