<svg xmlns="http://www.w3.org/2000/svg" width="96" height="96" viewBox="0 0 96 96" role="img" aria-labelledby="title desc">
  <title id="title">Codebuff</title>
  <desc id="desc">Codebuff client mark for tokenjuice docs.</desc>
  <rect width="96" height="96" rx="18" fill="#111827"/>
  <path d="M69 68c-6 5-13 7-22 7-17 0-29-12-29-27s12-27 29-27c9 0 16 3 21 8l-8 10c-3-3-8-5-13-5-8 0-15 6-15 14s7 14 15 14c5 0 10-2 14-5l8 11Z" fill="#F8FAFC"/>
  <path d="M52 47h10c8 0 13 5 13 13s-5 13-13 13H52V47Zm8 7v12h2c3 0 5-2 5-6s-2-6-5-6h-2Z" fill="#38BDF8"/>
</svg>
