<svg width="96" height="96" viewBox="0 0 96 96" xmlns="http://www.w3.org/2000/svg" role="img" aria-label="Qwen Code">
  <rect width="96" height="96" rx="18" fill="#111827"/>
  <path d="M26 49c0-14 10-24 23-24 14 0 24 10 24 24 0 7-3 14-8 18l8 8h-12l-4-4c-3 1-5 2-8 2-13 0-23-10-23-24Z" fill="#38bdf8"/>
  <path d="M37 49c0 8 5 14 12 14 2 0 4 0 5-1l-7-7h12l2 2c1-2 2-5 2-8 0-8-6-14-14-14-7 0-12 6-12 14Z" fill="#f8fafc"/>
  <path d="M22 24h15v7H22v-7Zm37 0h15v7H59v-7ZM22 65h15v7H22v-7Z" fill="#a78bfa"/>
</svg>
